<?xml version="1.0" encoding="utf-8"?>
<!-- Generator: Adobe Illustrator 27.4.0, SVG Export Plug-In . SVG Version: 6.00 Build 0)  -->
<svg version="1.1" id="レイヤー_1" xmlns="http://www.w3.org/2000/svg" xmlns:xlink="http://www.w3.org/1999/xlink" x="0px"
	 y="0px" viewBox="0 0 256 256" style="enable-background:new 0 0 256 256;" xml:space="preserve">
<style type="text/css">
	.st0{fill:#F44336;}
</style>
<g transform="translate(1.4065934065934016 1.4065934065934016) scale(2.81 2.81)">
	<path class="st0" d="M89.4,86.6l-12.1-12c1.2-2,1.5-4.4,0.7-6.6l-1.5-4.1c1-2.9,0.3-6.3-2-8.6L42.4,23.3l0.3-0.3
		c1.6-1.6,1.6-4.1,0-5.6l-3.2-3.2c-1.6-1.6-4.1-1.6-5.6,0l-4.4,4.4l-4.1-4.1l4.4-4.4c1.6-1.6,1.6-4.1,0-5.6l-3.2-3.2
		c-1.6-1.6-4.1-1.6-5.6,0L1.2,21c-1.6,1.6-1.6,4.1,0,5.6l3.2,3.2C5.1,30.6,6.1,31,7.1,31s2.1-0.4,2.8-1.2l4.4-4.4l4.1,4.1L14.1,34
		c-1.6,1.6-1.6,4.1,0,5.6l3.2,3.2c0.8,0.8,1.8,1.2,2.8,1.2s2-0.4,2.8-1.2l0.3-0.3l9.7,9.7c0,0,0,0,0,0s0,0,0,0l7.4,7.4l0,0l0,0
		l14.9,14.9c1.6,1.6,3.8,2.5,5.9,2.5c0.9,0,1.8-0.2,2.7-0.4L68,78c0.8,0.3,1.7,0.4,2.6,0.4c1.3,0,2.7-0.4,3.8-1l12.1,12
		C87,89.8,87.5,90,88,90c0.5,0,1-0.2,1.4-0.6C90.2,88.6,90.2,87.4,89.4,86.6z M7.1,27L4,23.9L23.9,4L27,7.1L21.2,13c0,0,0,0,0,0
		L13,21.2c0,0,0,0,0,0L7.1,27z M22.6,17.2l4.1,4.1l-5.3,5.3l-4.1-4.1L22.6,17.2z M16.9,36.8L36.8,17l3.1,3.1l-1.8,1.8c0,0,0,0,0,0
		s0,0,0,0L21.9,38.2c0,0,0,0-0.1,0s0,0,0,0.1L20.1,40L16.9,36.8z M58.2,71.7l-6.1-6.1l6.8-6.8c0.8-0.8,0.8-2,0-2.8s-2-0.8-2.8,0
		l-6.8,6.8l-4.6-4.6l10.2-10.2c0.8-0.8,0.8-2,0-2.8s-2-0.8-2.8,0L41.8,55.3l-4.6-4.6L44,44c0.8-0.8,0.8-2,0-2.8s-2-0.8-2.8,0
		l-6.8,6.8l-8.3-8.3l13.5-13.5l32.1,32.1c0.8,0.8,1.3,1.9,1.3,3.1c0,1.2-0.5,2.3-1.3,3.1l-7.3,7.3c-0.8,0.8-1.9,1.3-3.1,1.3
		C60.1,73,59,72.5,58.2,71.7z M69.4,74.2L68,73.7l5.7-5.7l0.5,1.4c0.5,1.3,0.1,2.8-0.9,3.8l-0.1,0.1C72.2,74.4,70.7,74.7,69.4,74.2z
		"/>
</g>
</svg>
